:SAMPLES-PER-SECOND 30
:FRAME-RANGE 1-3535
:FULLY-SPECIFIED
:DEGREES
111
root  -13.4611 32.877 -34.2271 85.7449 71.3158 92.1702
RightUpLeg  -25.2258 2.97325 -37.9893
RightLeg  66.1454 -0.177378 -1.08814
RightFoot  -32.2519 3.07716 17.7477
RightToes  1.22775e-009 1.2921e-014 -6.02303e-014
Spine  11.7542 0.225276 -3.03576
Spine1  -4.00699 2.05502 -16.8287
HEad  5.81548 -5.62935 -4.34495
LeftShoulder1  0.691464 1.44258 -27.401
LeftArm  -35.1454 -30.7961 -3.64038
LeftForeArm  -2.43022 -33.1845 -7.49739
LeftHand  0.00451648 0.598588 -0.190496
RightShoulder  7.07015 9.38764 48.0416
RightArm  -9.42839 -1.20595 13.2878
RightForeArm  -4.78456 59.5758 20.094
RightHand  -0.197064 0.159252 -4.16508
LeftUpLeg  -21.1269 12.9995 -3.30108
LeftLeg  57.1907 -6.05132 -9.47737
LeftFoot  -27.4738 -1.65476 -12.7951
LeftToes  2.52163e-011 5.65494e-011 -1.09494e-012
112
root  -13.4829 32.7351 -34.3276 91.1276 70.3962 97.4394
RightUpLeg  -24.7966 3.45075 -38.9938
RightLeg  66.9387 -0.964087 -3.17101
RightFoot  -32.3067 3.20152 18.3606
RightToes  1.22775e-009 1.2921e-014 -6.02303e-014
Spine  12.3462 -0.177337 -5.16949
Spine1  -4.48753 0.864111 -13.8876
HEad  6.00372 -7.78306 -5.66377
LeftShoulder1  0.745508 1.13114 -25.204
LeftArm  -31.894 -33.5769 -3.35724
LeftForeArm  -2.4185 -31.7046 -7.10207
LeftHand  0.0275442 -0.104131 -0.575098
RightShoulder  6.39864 8.29226 47.5152
RightArm  -12.8751 -0.284547 11.4496
RightForeArm  -6.94706 59.4694 20.1944
RightHand  -0.22252 -0.213502 -4.99883
LeftUpLeg  -22.0702 11.4379 -4.73183
LeftLeg  57.8064 -5.81132 -9.31212
LeftFoot  -27.4344 -1.62973 -12.6498
LeftToes  2.52163e-011 5.65494e-011 -1.09494e-012
113
root  -13.4519 32.856 -34.206 97.0693 70.3652 103.002
RightUpLeg  -23.6371 2.85602 -38.3938
RightLeg  66.3937 -1.39946 -4.17681
RightFoot  -32.2844 3.33365 19.0776
RightToes  1.22775e-009 1.2921e-014 -6.02303e-014
Spine  12.404 -0.645516 -6.93876
Spine1  -5.02688 -0.304263 -10.7402
HEad  7.01795 -9.92764 -5.99733
LeftShoulder1  0.791724 0.86136 -23.6806
LeftArm  -28.5906 -34.91 -4.33745
LeftForeArm  -1.01683 -32.7497 -7.30202
LeftHand  0.0437837 -0.808056 -0.742725
RightShoulder  5.79071 7.3473 46.736
RightArm  -17.5792 0.549176 9.39799
RightForeArm  -11.7214 58.0333 19.3867
RightHand  -0.215455 -0.794223 -5.38263
LeftUpLeg  -22.5013 10.2034 -4.58499
LeftLeg  57.1225 -6.30384 -9.85949
LeftFoot  -26.7666 -1.54502 -12.5519
LeftToes  2.52163e-011 5.65494e-011 -1.09494e-012
114
root  -13.3889 33.2054 -33.8972 102.423 71.1074 107.921
RightUpLeg  -22.2448 1.68005 -36.4317
RightLeg  64.7918 -1.81715 -4.82674
RightFoot  -31.758 3.40083 19.9151
RightToes  1.22775e-009 1.2921e-014 -6.02303e-014
Spine  12.1803 -0.92656 -7.98275
Spine1  -5.00833 -1.02695 -8.01808
HEad  7.60275 -12.44 -5.29285
LeftShoulder1  0.842145 0.627977 -22.9694
LeftArm  -25.8749 -35.3384 -6.38493
LeftForeArm  2.18247 -35.9145 -8.00053
LeftHand  0.0580185 -1.40644 -0.864912
RightShoulder  5.42951 6.97552 45.3372
RightArm  -21.8887 0.879731 6.64972
RightForeArm  -14.9351 54.8218 17.277
RightHand  -0.232619 -0.581119 -5.58504
LeftUpLeg  -22.2688 9.27031 -3.14569
LeftLeg  55.1671 -6.99843 -10.1787
LeftFoot  -25.5317 -1.46233 -12.9317
LeftToes  2.52163e-011 5.65494e-011 -1.09494e-012
115
root  -13.3059 33.7223 -33.427 106.284 72.4512 111.263
RightUpLeg  -20.9516 0.376667 -33.6505
RightLeg  62.2278 -1.94923 -4.56147
RightFoot  -31.0743 3.36267 20.3662
RightToes  1.22775e-009 1.2921e-014 -6.02303e-014
Spine  11.6396 -0.980174 -8.15481
Spine1  -4.55361 -1.1716 -6.72465
HEad  7.655 -14.8561 -3.62821
LeftShoulder1  0.928003 0.285819 -22.5029
LeftArm  -23.5612 -34.4413 -9.51393
LeftForeArm  5.4453 -40.9467 -9.3668
LeftHand  0.0789777 -1.83833 -1.1127
RightShoulder  5.11228 6.75621 43.5229
RightArm  -24.8869 1.53904 4.3411
RightForeArm  -16.7532 49.0732 14.1015
RightHand  -0.23201 -0.269025 -5.26351
LeftUpLeg  -21.4107 8.60468 -0.889847
LeftLeg  52.0146 -7.72646 -10.0139
LeftFoot  -23.8713 -1.35832 -13.6203
LeftToes  2.52163e-011 5.65494e-011 -1.09494e-012
116
root  -13.2019 34.3288 -32.845 109.359 74.6907 113.977
RightUpLeg  -19.621 -1.05347 -29.8001
RightLeg  59.0849 -1.8562 -3.82573
RightFoot  -30.1076 3.08032 19.7139
RightToes  1.22775e-009 1.2921e-014 -6.02303e-014
Spine  11.2842 -1.00362 -7.62519
Spine1  -4.22574 -1.1484 -5.89316
HEad  7.7274 -16.5978 -1.54141
LeftShoulder1  1.01782 -0.0131318 -22.6148
LeftArm  -22.0151 -31.9012 -13.4185
LeftForeArm  9.53842 -46.2378 -11.0336
LeftHand  0.111891 -2.11245 -1.55946
RightShoulder  4.97437 6.99397 41.2469
RightArm  -25.0382 2.58156 2.95854
RightForeArm  -17.203 40.8913 10.7013
RightHand  -0.213235 0.52697 -4.26037
LeftUpLeg  -19.9172 8.28566 2.45232
LeftLeg  48.184 -8.43782 -9.54557
LeftFoot  -22.0824 -1.23737 -14.5007
LeftToes  2.52163e-011 5.65494e-011 -1.09494e-012
117
root  -13.0869 34.9485 -32.1747 112.163 77.8027 116.613
RightUpLeg  -18.3188 -2.53387 -24.9536
RightLeg  55.7325 -1.61876 -2.98001
RightFoot  -28.9279 2.60798 18.0061
RightToes  1.22775e-009 1.2921e-014 -6.02303e-014
Spine  11.2438 -0.879125 -7.08214
Spine1  -4.1714 -1.06024 -4.63715
HEad  8.045 -17.6349 0.691809
LeftShoulder1  1.11542 -0.234002 -23.5675
LeftArm  -19.4938 -27.5221 -17.0117
LeftForeArm  12.9326 -52.3741 -13.6011
LeftHand  0.0769619 -1.38319 -1.19643
RightShoulder  5.05417 7.68871 39.129
RightArm  -22.6996 4.11611 2.60573
RightForeArm  -18.9654 31.6602 7.93327
RightHand  -0.168625 1.50367 -2.98593
LeftUpLeg  -17.9947 8.22438 6.75578
LeftLeg  44.0773 -8.84592 -8.66594
LeftFoot  -20.1534 -1.05219 -15.1423
LeftToes  2.52163e-011 5.65494e-011 -1.09494e-012
118
root  -12.9706 35.4586 -31.4744 116.372 82.011 120.899
RightUpLeg  -17.1584 -4.07673 -19.0666
RightLeg  52.7092 -1.05523 -1.87273
RightFoot  -27.5008 2.07629 15.8587
RightToes  1.22775e-009 1.2921e-014 -6.02303e-014
Spine  11.3877 -0.61865 -6.13174
Spine1  -3.85825 -0.886859 -2.63299
HEad  8.06352 -17.7108 3.02805
LeftShoulder1  1.22411 -0.369606 -25.4132
LeftArm  -18.2782 -21.9062 -20.1248
LeftForeArm  17.2445 -56.8416 -15.8716
LeftHand  0.0614869 -1.5229 -0.897987
RightShoulder  5.41829 8.93875 37.571
RightArm  -19.1548 5.75167 2.72137
RightForeArm  -24.0922 23.9982 6.25164
RightHand  -0.0859436 1.58521 -1.57839
LeftUpLeg  -15.9636 8.42734 12.3194
LeftLeg  40.6714 -9.07749 -7.89142
LeftFoot  -18.6354 -0.868398 -15.2916
LeftToes  2.52163e-011 5.65494e-011 -1.09494e-012
119
root  -12.8863 35.8072 -30.8247 136.349 86.5063 141.106
RightUpLeg  -16.0831 -6.26941 -12.8629
RightLeg  50.2414 0.113576 -0.212888
RightFoot  -25.8811 1.54931 13.4733
RightToes  1.22775e-009 1.2921e-014 -6.02303e-014
Spine  11.7325 -0.454247 -4.58915
Spine1  -3.33683 -0.787107 -0.221178
HEad  7.5826 -17.0692 5.53628
LeftShoulder1  1.32965 -0.461254 -27.4148
LeftArm  -17.6133 -15.5641 -22.8343
LeftForeArm  19.7527 -59.5609 -17.6
LeftHand  0.0110701 -1.27231 -0.0728708
RightShoulder  5.7745 10.2093 36.1631
RightArm  -24.1554 7.52928 2.42907
RightForeArm  -15.6906 15.6928 8.82785
RightHand  -0.00346941 2.4128 -0.24742
LeftUpLeg  -14.3118 9.04614 18.6657
LeftLeg  38.3989 -9.58446 -7.69673
LeftFoot  -17.492 -0.718306 -15.2358
LeftToes  2.52163e-011 5.65494e-011 -1.09494e-012
120
root  -12.859 35.9683 -30.2173 -119.646 87.3442 -115.104
RightUpLeg  -15.9031 -8.67783 -6.89586
RightLeg  48.5718 1.70687 1.72753
RightFoot  -24.4594 1.12082 11.1651
RightToes  1.22775e-009 1.2921e-014 -6.02303e-014
Spine  11.7155 -0.211429 -3.28915
Spine1  -2.6276 -0.660147 2.22504
HEad  6.17779 -16.2503 8.57175
LeftShoulder1  1.38297 -0.47077 -28.7092
LeftArm  -18.6607 -8.64795 -26.5466
LeftForeArm  20.6886 -60.007 -17.8585
LeftHand  -0.0530576 -1.07269 1.06406
RightShoulder  6.10092 11.339 35.1659
RightArm  -26.697 8.8712 2.36016
RightForeArm  -9.59202 11.1237 10.4431
RightHand  -0.0251229 2.56247 -0.571104
LeftUpLeg  -13.6117 10.4269 25.0205
LeftLeg  37.2911 -10.1283 -7.82906
LeftFoot  -16.6158 -0.623343 -15.602
LeftToes  2.52163e-011 5.65494e-011 -1.09494e-012
121
root  -12.8738 35.9597 -29.6341 -91.2222 83.3709 -86.8865
RightUpLeg  -15.9271 -10.9531 -1.48775
RightLeg  47.6313 3.33714 3.57648
RightFoot  -23.6191 0.860112 9.47145
RightToes  1.22775e-009 1.2921e-014 -6.02303e-014
Spine  12.3061 0.0437231 -2.83861
Spine1  -2.25931 -0.729841 4.96622
HEad  4.34184 -14.9144 11.6972
LeftShoulder1  1.4091 -0.467929 -29.4057
LeftArm  -21.6491 -1.26103 -30.8349
LeftForeArm  21.5131 -59.5818 -17.4294
LeftHand  -0.0948243 -0.630501 1.90804
RightShoulder  6.39113 12.0272 35.2058
RightArm  -23.4881 10.241 2.20489
RightForeArm  -11.0938 12.1507 10.6285
RightHand  0.00083172 2.54705 -0.190899
LeftUpLeg  -13.6429 11.5302 30.7859
LeftLeg  37.4909 -9.8899 -7.69862
LeftFoot  -15.6983 -0.449557 -14.2192
LeftToes  2.52163e-011 5.65494e-011 -1.09494e-012
122
root  -12.923 35.7972 -29.1686 -82.3821 81.3889 -78.466
RightUpLeg  -17.1061 -13.0002 1.02432
RightLeg  48.7392 5.18497 5.96143
RightFoot  -23.3745 0.711294 8.2435
RightToes  1.22775e-009 1.2921e-014 -6.02303e-014
Spine  12.7619 0.319347 -4.2201
Spine1  -1.89128 -0.882679 6.68545
HEad  2.67913 -13.0767 14.5491
LeftShoulder1  1.4734 -0.62358 -29.6315
LeftArm  -23.715 4.88481 -33.8944
LeftForeArm  17.4634 -58.2017 -16.8018
LeftHand  -0.0882541 0.389356 2.02146
RightShoulder  6.47971 11.7489 36.5137
RightArm  -16.6907 12.3979 2.03313
RightForeArm  -15.5842 16.9861 8.82098
RightHand  -0.0264657 2.7562 -0.59158
LeftUpLeg  -14.2129 11.3166 33.2941
LeftLeg  38.4835 -8.00082 -6.41083
LeftFoot  -15.4382 -0.358725 -12.5657
LeftToes  2.52163e-011 5.65494e-011 -1.09494e-012
123
root  -12.9697 35.5144 -28.8339 -75.5127 80.6325 -71.8804
RightUpLeg  -18.9401 -14.2759 1.88877
RightLeg  51.5028 6.38121 8.17172
RightFoot  -23.3179 0.621441 7.42533
RightToes  1.22775e-009 1.2921e-014 -6.02303e-014
Spine  12.9088 0.540905 -5.90138
Spine1  -1.13298 -1.04365 7.72894
HEad  1.02877 -11.0264 16.9423
LeftShoulder1  1.52789 -0.832171 -29.165
LeftArm  -24.001 7.80067 -35.8128
LeftForeArm  11.3672 -54.496 -14.9294
LeftHand  -0.027047 1.15329 0.577865
RightShoulder  6.58986 11.4086 38.1729
RightArm  -13.5085 13.628 2.57606
RightForeArm  -17.2462 23.9934 5.95808
RightHand  -0.0500334 3.04175 -0.917447
LeftUpLeg  -14.8293 10.9406 34.1725
LeftLeg  40.3325 -6.77613 -5.76021
LeftFoot  -16.3483 -0.461552 -12.7462
LeftToes  2.52163e-011 5.65494e-011 -1.09494e-012
